<svg width="340" height="72" viewBox="0 0 340 72" xmlns="http://www.w3.org/2000/svg" role="img" aria-label="Iphigenai"><defs></defs><path d="M 34 36 L 34 7 A 29 29 0 0 1 54.506 15.494 Z" fill="#133A2B" stroke="#FFFFFF" stroke-width="1.6" stroke-linejoin="round"></path><path d="M 34 36 L 54.506 15.494 A 29 29 0 0 1 63 36 Z" fill="#BC9230" stroke="#FFFFFF" stroke-width="1.6" stroke-linejoin="round"></path><path d="M 34 36 L 63 36 A 29 29 0 0 1 54.506 56.506 Z" fill="#235C45" stroke="#FFFFFF" stroke-width="1.6" stroke-linejoin="round"></path><path d="M 34 36 L 54.506 56.506 A 29 29 0 0 1 34 65 Z" fill="#BC9230" stroke="#FFFFFF" stroke-width="1.6" stroke-linejoin="round"></path><path d="M 34 36 L 34 65 A 29 29 0 0 1 13.494 56.506 Z" fill="#235C45" stroke="#FFFFFF" stroke-width="1.6" stroke-linejoin="round"></path><path d="M 34 36 L 13.494 56.506 A 29 29 0 0 1 5 36 Z" fill="#BC9230" stroke="#FFFFFF" stroke-width="1.6" stroke-linejoin="round"></path><path d="M 34 36 L 5 36 A 29 29 0 0 1 13.494 15.494 Z" fill="#235C45" stroke="#FFFFFF" stroke-width="1.6" stroke-linejoin="round"></path><path d="M 34 36 L 13.494 15.494 A 29 29 0 0 1 34 7 Z" fill="#BC9230" stroke="#FFFFFF" stroke-width="1.6" stroke-linejoin="round"></path><line x1="34" y1="2.94" x2="34" y2="69.06" stroke="#161A14" stroke-width="2.9" stroke-linecap="round"></line><text x="80" y="48" class="wm" font-size="38" letter-spacing="-0.4" fill="#161A14">Iphigen<tspan fill="#98731F">ai</tspan></text></svg>